<svg width="13" height="13" viewBox="0 0 13 13" fill="none" xmlns="http://www.w3.org/2000/svg">
<g clip-path="url(#clip0_16_491)">
<path d="M8.00911 11.8857C8.57215 12.249 9.24309 12.4073 9.90911 12.334C10.5751 12.2607 11.1956 11.9604 11.6662 11.4835L12.0777 11.0812C12.2581 10.8967 12.359 10.6489 12.359 10.3909C12.359 10.1329 12.2581 9.88509 12.0777 9.7006L10.3314 7.9726C10.1484 7.7928 9.90219 7.69205 9.64568 7.69205C9.38917 7.69205 9.14291 7.7928 8.95996 7.9726V7.9726C8.77547 8.15297 8.5277 8.25397 8.26968 8.25397C8.01166 8.25397 7.76389 8.15297 7.57939 7.9726L4.83653 5.22974C4.74503 5.13957 4.67237 5.03211 4.62278 4.9136C4.57318 4.7951 4.54764 4.66792 4.54764 4.53945C4.54764 4.41099 4.57318 4.28381 4.62278 4.1653C4.67237 4.0468 4.74503 3.93934 4.83653 3.84917V3.84917C5.01633 3.66622 5.11708 3.41997 5.11708 3.16345C5.11708 2.90694 5.01633 2.66069 4.83653 2.47774L3.09939 0.740597C2.9149 0.560222 2.66713 0.459229 2.40911 0.459229C2.15109 0.459229 1.90332 0.560222 1.71882 0.740597L1.31653 1.15203C0.839594 1.62265 0.539241 2.24314 0.465978 2.90916C0.392715 3.57519 0.551011 4.24613 0.914249 4.80917C2.80686 7.59841 5.21499 10.0003 8.00911 11.8857V11.8857Z" stroke="#783FFF" stroke-linecap="round" stroke-linejoin="round"/>
</g>
<defs>
<clipPath id="clip0_16_491">
<rect width="12" height="12" fill="white"/>
</clipPath>
</defs>
</svg>
